<svg xmlns="http://www.w3.org/2000/svg" height="48px" viewBox="0 -960 960 960" width="48px" fill="#cbdbff"><path d="M216-259q64-41 127.55-61.5 63.54-20.5 136.5-20.5 72.95 0 136.45 20.5Q680-300 746-259q43-56 60-109t17-112q0-146-98.5-244.5T480-823q-146 0-244.5 98.5T137-480q0 59 17.5 112T216-259Zm158-222.04q-43-43.04-43-106T374.04-693q43.04-43 106-43T586-692.96q43 43.04 43 106T585.96-481q-43.04 43-106 43T374-481.04ZM479.84-64Q394-64 317.87-97.21q-76.12-33.21-132.5-90Q129-244 96.5-319.5 64-395 64-479.5q0-86.5 33.21-162.13 33.21-75.62 90-132Q244-830 319.5-863q75.5-33 160-33 86.5 0 162.01 33.24 75.5 33.24 131.79 89.58 56.28 56.34 89.49 131.92Q896-565.68 896-480q0 85-33 160.5t-89.44 132.29q-56.45 56.79-132.16 90Q565.68-64 479.84-64Z"/></svg>